<svg xmlns="http://www.w3.org/2000/svg" xmlns:xlink="http://www.w3.org/1999/xlink" width="500" zoomAndPan="magnify" viewBox="0 0 375 374.999991" height="500" preserveAspectRatio="xMidYMid meet" version="1.0"><path fill="#4ade80" d="M 179.933594 67.117188 C 174.191406 96.496094 182.828125 125.875 203.667969 147.375 C 199.347656 144.5 195.027344 142.34375 190.734375 139.46875 C 182.09375 131.617188 174.191406 122.289062 169.871094 110.828125 C 165.578125 99.367188 163.414062 87.195312 164.863281 75.734375 C 165.578125 66.429688 169.183594 57.105469 173.480469 48.515625 C 179.933594 52.097656 185.703125 55.679688 190.734375 59.953125 C 197.1875 64.984375 202.929688 70.703125 207.960938 77.15625 C 206.539062 80.027344 204.378906 83.609375 203.667969 86.457031 C 200.058594 96.496094 197.925781 107.246094 198.636719 118.707031 C 186.414062 104.375 179.933594 86.457031 179.933594 67.117188 Z M 110.230469 25.589844 C 105.9375 22.007812 100.191406 22.71875 96.585938 27.015625 C 93.738281 30.597656 93.738281 37.027344 98.03125 40.609375 C 102.328125 44.195312 108.097656 43.507812 111.703125 39.1875 C 115.289062 35.605469 114.550781 29.175781 110.230469 25.589844 Z M 8.230469 173.878906 C 3.175781 175.300781 0.328125 180.308594 2.464844 185.316406 C 4.621094 190.347656 10.367188 193.21875 15.398438 191.773438 C 20.429688 189.636719 22.589844 183.894531 20.429688 178.886719 C 18.980469 173.878906 13.238281 171.71875 8.230469 173.878906 Z M 85.097656 335.054688 C 84.386719 340.058594 87.96875 345.066406 93.738281 346.515625 C 98.746094 347.226562 103.777344 343.644531 104.488281 338.613281 C 105.9375 333.605469 102.328125 327.886719 96.585938 327.175781 C 91.578125 326.4375 86.523438 330.023438 85.097656 335.054688 Z M 264.730469 349.363281 C 269.050781 352.945312 274.792969 352.234375 278.398438 348.652344 C 281.984375 344.355469 281.273438 338.613281 277.664062 335.054688 C 273.367188 331.46875 266.890625 331.46875 264.019531 335.765625 C 260.433594 340.058594 261.148438 346.515625 264.730469 349.363281 Z M 366.78125 201.808594 C 371.8125 200.363281 374.683594 194.644531 372.523438 189.636719 C 371.074219 184.605469 365.332031 181.734375 360.300781 183.894531 C 355.269531 185.316406 353.109375 191.058594 354.558594 196.066406 C 356.71875 201.097656 361.75 203.945312 366.78125 201.808594 Z M 289.886719 39.921875 C 290.597656 34.894531 287.015625 29.886719 281.984375 29.171875 C 276.238281 27.726562 271.207031 31.308594 270.472656 36.339844 C 269.761719 42.058594 272.632812 47.089844 278.398438 47.777344 C 283.40625 49.226562 288.4375 45.644531 289.886719 39.921875 Z M 79.355469 134.464844 C 101.640625 153.09375 131.804688 160.972656 160.546875 153.09375 C 156.226562 156.675781 151.929688 158.808594 146.898438 160.257812 C 136.101562 165.265625 123.902344 166.714844 111.707031 164.554688 C 99.484375 163.128906 88.683594 158.125 78.621094 151.644531 C 71.453125 145.925781 64.976562 138.78125 59.96875 130.882812 C 65.710938 126.585938 72.164062 123.003906 78.621094 120.867188 C 85.835938 117.996094 93.738281 115.859375 101.644531 115.125 C 103.777344 117.996094 105.9375 120.867188 107.386719 123.003906 C 114.550781 131.617188 123.191406 138.046875 133.253906 143.792969 C 114.550781 146.636719 95.875 143.789062 79.355469 134.464844 Z M 87.257812 254.085938 C 114.550781 244.785156 136.835938 222.574219 144.738281 193.929688 C 144.738281 198.9375 144.738281 203.945312 143.316406 208.976562 C 141.867188 221.148438 136.835938 231.898438 129.644531 241.199219 C 122.453125 251.238281 112.390625 258.40625 101.640625 263.410156 C 93.003906 266.996094 83.675781 269.132812 73.613281 269.132812 C 73.613281 261.964844 73.613281 254.820312 75.035156 248.367188 C 76.460938 240.488281 78.621094 233.324219 82.226562 225.445312 C 85.097656 225.445312 87.96875 224.734375 91.578125 224.734375 C 102.328125 222.574219 112.390625 218.277344 122.453125 212.558594 C 116 229.738281 103.777344 244.785156 87.257812 254.085938 Z M 195.027344 307.8125 C 200.796875 279.167969 192.15625 249.082031 171.34375 228.316406 C 175.636719 230.453125 180.671875 233.324219 184.253906 236.195312 C 193.605469 243.363281 200.796875 253.375 205.828125 264.835938 C 210.121094 275.585938 211.570312 287.761719 210.121094 299.222656 C 209.410156 309.261719 206.539062 317.847656 201.507812 326.441406 C 195.765625 323.59375 189.285156 320.007812 184.253906 314.976562 C 177.796875 309.972656 172.03125 304.25 167.734375 297.796875 C 169.183594 294.925781 170.605469 292.054688 171.34375 289.207031 C 175.636719 279.167969 177.085938 267.707031 177.085938 256.960938 C 188.574219 270.578125 195.027344 289.207031 195.027344 307.8125 Z M 295.628906 241.199219 C 273.367188 221.859375 243.179688 214.695312 214.441406 221.859375 C 218.761719 218.988281 223.769531 216.855469 228.085938 214.695312 C 238.863281 211.109375 251.082031 208.976562 263.304688 211.109375 C 275.503906 212.558594 286.300781 216.855469 296.339844 224.019531 C 303.53125 229.738281 310.722656 236.195312 315.753906 244.785156 C 309.273438 248.367188 303.53125 251.949219 297.078125 254.820312 C 289.171875 256.957031 281.273438 259.117188 273.367188 260.542969 C 271.921875 256.957031 269.761719 254.820312 267.601562 251.949219 C 260.433594 243.359375 251.796875 236.90625 242.46875 231.164062 C 260.433594 228.316406 279.824219 231.898438 295.628906 241.199219 Z M 72.164062 103.664062 C 78.621094 101.527344 85.835938 99.367188 92.289062 98.65625 C 90.84375 93.625 89.417969 90.042969 88.683594 85.035156 C 85.101562 71.4375 85.101562 56.394531 88.683594 42.773438 L 104.488281 56.394531 C 103.777344 64.984375 103.777344 72.863281 105.9375 80.738281 C 108.808594 92.203125 113.839844 102.214844 121.03125 111.542969 C 128.933594 120.132812 138.257812 127.296875 148.320312 130.882812 C 153.378906 133.039062 158.382812 134.464844 163.414062 135.886719 C 159.121094 130.167969 155.511719 124.449219 153.378906 117.285156 C 146.898438 103.664062 144.738281 88.617188 146.898438 73.574219 C 148.320312 59.265625 153.378906 44.195312 161.964844 32.023438 L 166.285156 26.304688 L 173.476562 29.175781 C 184.25 33.46875 193.601562 39.1875 202.929688 46.355469 C 207.960938 50.652344 212.992188 55.679688 218.023438 61.398438 C 220.183594 57.816406 223.765625 54.234375 226.660156 50.652344 C 237.4375 41.347656 250.371094 34.183594 264.015625 29.886719 L 260.433594 49.9375 C 252.53125 53.523438 245.339844 57.816406 239.59375 63.535156 C 230.957031 71.4375 225.214844 81.453125 220.894531 92.203125 C 216.597656 102.953125 215.863281 114.414062 216.597656 125.875 C 218.023438 130.882812 218.757812 135.886719 220.183594 140.917969 C 223.765625 134.464844 226.660156 128.035156 230.957031 122.292969 C 240.308594 110.828125 252.53125 101.527344 266.175781 95.074219 C 279.820312 89.355469 294.914062 87.195312 310.007812 88.617188 L 317.175781 88.617188 L 318.625 95.785156 C 320.070312 107.246094 320.070312 118.707031 317.914062 130.167969 C 317.175781 136.625 315.039062 143.789062 312.171875 150.222656 C 317.175781 150.957031 322.207031 151.644531 325.816406 153.09375 C 339.460938 157.386719 352.394531 164.554688 363.167969 174.566406 L 343.042969 181.734375 C 336.589844 176.726562 329.398438 173.144531 320.785156 170.296875 C 310.722656 166.714844 298.5 166.714844 287.011719 168.136719 C 275.503906 170.296875 264.726562 175.304688 256.113281 181.734375 C 251.792969 185.316406 248.210938 188.902344 245.339844 192.484375 C 251.792969 191.773438 258.984375 192.484375 266.175781 192.484375 C 281.269531 194.640625 294.914062 201.097656 307.136719 208.976562 C 318.625 218.277344 328.6875 229.738281 335.140625 243.359375 L 338.039062 249.789062 L 332.269531 254.820312 C 323.65625 261.964844 313.589844 266.996094 302.816406 271.289062 C 296.335938 274.160156 289.882812 275.585938 282.691406 277.007812 C 284.851562 281.328125 285.5625 285.621094 286.300781 289.917969 C 289.882812 304.25 289.882812 318.558594 286.300781 332.890625 L 271.207031 319.273438 C 271.207031 310.683594 271.207031 302.804688 269.757812 294.210938 C 266.886719 283.464844 261.144531 272.710938 253.953125 264.125 C 246.761719 254.820312 237.433594 248.367188 226.660156 244.070312 C 221.628906 241.910156 216.597656 240.488281 211.566406 239.777344 C 215.863281 244.785156 219.46875 251.238281 222.34375 257.667969 C 228.085938 272.003906 230.246094 287.046875 228.796875 301.378906 C 226.660156 316.425781 221.628906 330.734375 212.992188 343.644531 L 208.695312 348.648438 L 202.21875 346.511719 C 191.441406 342.195312 181.378906 336.476562 172.027344 329.308594 C 167.023438 325.015625 161.964844 320.007812 157.671875 314.265625 C 154.800781 317.847656 151.929688 321.429688 148.320312 325.015625 C 138.257812 334.316406 125.347656 341.484375 110.964844 345.066406 L 114.550781 325.015625 C 123.1875 321.429688 129.644531 317.136719 136.097656 311.394531 C 144.027344 303.515625 150.480469 294.210938 154.800781 283.464844 C 158.382812 272.003906 159.832031 260.539062 158.382812 249.078125 C 157.671875 244.785156 156.222656 239.777344 154.800781 234.746094 C 151.929688 241.203125 148.320312 246.941406 144.027344 252.664062 C 134.675781 264.835938 122.453125 274.160156 109.542969 279.882812 C 95.875 285.625 80.066406 288.472656 64.972656 287.757812 L 57.804688 286.335938 L 57.070312 279.167969 C 54.910156 268.421875 55.648438 256.957031 57.070312 245.496094 C 58.519531 238.328125 59.964844 231.164062 62.8125 224.734375 C 57.804688 224.734375 53.488281 223.285156 49.167969 221.863281 C 35.519531 217.566406 22.585938 211.113281 11.8125 201.097656 L 31.9375 193.933594 C 38.394531 198.9375 46.296875 202.523438 54.199219 204.65625 C 64.972656 208.242188 77.195312 208.976562 87.96875 206.816406 C 99.480469 204.65625 110.230469 199.652344 119.605469 193.21875 C 123.1875 190.347656 126.773438 186.765625 130.355469 182.46875 C 123.1875 183.894531 116 183.894531 109.542969 182.46875 C 93.738281 180.3125 80.066406 174.566406 68.554688 165.976562 C 56.359375 157.386719 46.296875 145.214844 39.839844 131.617188 L 36.945312 125.136719 L 42.6875 120.867188 C 51.328125 113.699219 61.390625 107.957031 72.164062 103.664062 Z M 184.988281 156.675781 C 177.796875 164.554688 169.183594 170.296875 159.832031 174.566406 C 161.96875 184.605469 163.417969 195.355469 161.96875 205.394531 C 172.03125 208.242188 182.09375 212.558594 190.734375 218.277344 C 197.925781 211.113281 206.539062 204.65625 215.863281 201.097656 C 212.996094 190.347656 211.570312 180.308594 212.996094 170.296875 C 202.929688 167.425781 192.890625 163.128906 184.988281 156.675781 Z M 293.46875 149.507812 C 297.078125 142.34375 298.5 134.464844 299.949219 127.296875 C 301.375 120.128906 302.109375 112.964844 301.375 105.796875 C 292.046875 105.796875 281.984375 107.957031 273.371094 112.277344 C 262.570312 116.546875 252.53125 124.449219 245.339844 133.75 C 238.148438 143.054688 233.832031 154.539062 231.695312 166.710938 C 230.246094 171.71875 230.246094 176.726562 230.246094 181.734375 C 238.863281 153.089844 260.4375 130.878906 288.4375 120.867188 C 271.921875 130.878906 258.988281 145.214844 253.246094 162.394531 C 262.570312 156.675781 272.632812 153.089844 284.144531 150.957031 C 287.015625 150.222656 289.886719 149.507812 293.46875 149.507812 Z M 293.46875 149.507812 " fill-opacity="1" fill-rule="evenodd"/></svg>